<svg xmlns="http://www.w3.org/2000/svg" xmlns:xlink="http://www.w3.org/1999/xlink" width="500" zoomAndPan="magnify" viewBox="0 0 375 374.999991" height="500" preserveAspectRatio="xMidYMid meet" version="1.0"><defs><g/><clipPath id="id1"><path d="M 193 137 L 222.640625 137 L 222.640625 171.699219 L 193 171.699219 Z M 193 137 " clip-rule="nonzero"/></clipPath><clipPath id="id2"><path d="M 152.140625 137 L 182 137 L 182 171.699219 L 152.140625 171.699219 Z M 152.140625 137 " clip-rule="nonzero"/></clipPath><clipPath id="id3"><path d="M 179 102.699219 L 196 102.699219 L 196 120 L 179 120 Z M 179 102.699219 " clip-rule="nonzero"/></clipPath><clipPath id="id4"><path d="M 179 102.699219 L 196 102.699219 L 196 120 L 179 120 Z M 179 102.699219 " clip-rule="nonzero"/></clipPath></defs><rect x="-37.5" width="450" fill="rgb(100%, 100%, 100%)" y="-37.499999" height="449.999989" fill-opacity="1"/><rect x="-37.5" width="450" fill="rgb(100%, 100%, 100%)" y="-37.499999" height="449.999989" fill-opacity="1"/><rect x="-37.5" width="450" fill="rgb(100%, 100%, 100%)" y="-37.499999" height="449.999989" fill-opacity="1"/><rect x="-37.5" width="450" fill="rgb(100%, 100%, 100%)" y="-37.499999" height="449.999989" fill-opacity="1"/><g fill="rgb(0%, 0%, 0%)" fill-opacity="1"><g transform="translate(124.829894, 209.48773)"><g><path d="M 1.453125 -7.5625 C 4.484375 3.714844 21.105469 1.625 20.460938 -7.648438 C 20.25 -10.636719 18.070312 -13.285156 14.867188 -13.199219 C 16.789062 -13.671875 19.351562 -13.796875 21.402344 -13.796875 C 20.035156 -18.328125 14.738281 -21.914062 8.84375 -20.335938 C 3.289062 -18.839844 -0.0429688 -13.113281 1.453125 -7.5625 Z M 3.972656 -10.636719 C 4.484375 -10.382812 5.082031 -10.296875 5.683594 -10.253906 C 7.304688 -10.125 9.355469 -10.59375 11.40625 -11.789062 C 15.679688 -14.269531 18.96875 -12.132812 19.90625 -9.015625 C 22.472656 -0.46875 7.691406 4.015625 4.359375 -8.332031 C 4.1875 -9.054688 4.058594 -9.824219 3.972656 -10.636719 Z M 18.113281 -14.011719 C 16.148438 -13.882812 13.585938 -13.414062 11.234375 -12.046875 C 9.226562 -10.894531 7.261719 -10.464844 5.683594 -10.550781 C 5.082031 -10.59375 4.484375 -10.722656 3.972656 -10.980469 C 3.757812 -14.738281 5.082031 -19.011719 8.929688 -20.035156 C 13.074219 -21.144531 16.488281 -17.644531 18.113281 -14.011719 Z M 18.113281 -14.011719 "/></g></g></g><g fill="rgb(0%, 0%, 0%)" fill-opacity="1"><g transform="translate(149.43428, 209.48773)"><g><path d="M 20.589844 -0.382812 C 20.335938 -0.382812 19.609375 -0.855469 19.609375 -3.675781 L 19.609375 -12.304688 C 19.609375 -17.128906 17.8125 -20.71875 12.304688 -20.71875 C 7.691406 -20.71875 4.699219 -17.429688 5 -15.679688 C 5.46875 -15.804688 8.542969 -16.320312 10.550781 -15.507812 C 11.105469 -15.292969 11.621094 -14.996094 12.046875 -14.609375 C 11.917969 -14.609375 11.832031 -14.609375 11.746094 -14.566406 C -0.855469 -14.097656 -1.878906 -0.171875 6.664062 0.171875 C 9.65625 0.300781 12.472656 -2.179688 13.753906 -5.46875 C 15.082031 -8.714844 14.398438 -14.355469 10.679688 -15.804688 C 9.269531 -16.363281 7.519531 -16.191406 7.007812 -16.789062 C 6.238281 -17.6875 8.203125 -20.421875 12.304688 -20.421875 C 16.40625 -20.421875 16.660156 -15.378906 16.660156 -12.304688 L 16.660156 0 L 20.589844 0 Z M 12.347656 -14.269531 C 14.269531 -12.046875 14.566406 -8.246094 13.5 -5.554688 C 12.558594 -3.246094 10.339844 -1.023438 7.648438 -1.539062 C 5.039062 -2.050781 4.015625 -4.65625 4.015625 -7.046875 C 4.015625 -11.960938 7.816406 -14.269531 12.347656 -14.269531 Z M 12.347656 -14.269531 "/></g></g></g><g fill="rgb(0%, 0%, 0%)" fill-opacity="1"><g transform="translate(173.227086, 209.48773)"><g><path d="M 1.066406 -20.292969 C 2.691406 -20.292969 3.757812 -19.097656 3.757812 -17.6875 L 3.757812 -7.945312 C 3.757812 -4.101562 4.742188 0.171875 9.398438 0.171875 C 12.21875 0.171875 14.183594 -2.347656 15.25 -4.699219 C 15.636719 -5.511719 15.933594 -6.449219 16.234375 -7.476562 L 15.847656 -7.476562 C 15.59375 -6.492188 15.25 -5.640625 14.910156 -4.828125 C 14.011719 -2.949219 11.875 -0.0859375 9.441406 -0.898438 C 7.046875 -1.707031 6.75 -5.894531 6.75 -7.945312 L 6.75 -20.292969 L 10.464844 -20.292969 L 10.464844 -20.589844 L 4.058594 -20.589844 C 6.75 -21.273438 8.160156 -23.027344 8.160156 -26.445312 L 5.167969 -26.445312 C 5.167969 -20.847656 1.792969 -20.589844 1.066406 -20.589844 Z M 1.066406 -20.292969 "/></g></g></g><g fill="rgb(0%, 0%, 0%)" fill-opacity="1"><g transform="translate(192.66297, 209.48773)"><g/></g></g><g fill="rgb(0%, 0%, 0%)" fill-opacity="1"><g transform="translate(204.324744, 209.48773)"><g><path d="M 19.179688 -0.382812 C 18.925781 -0.382812 18.199219 -0.855469 18.199219 -3.675781 L 18.199219 -20.589844 L 14.269531 -20.589844 L 14.269531 -20.207031 C 14.523438 -20.207031 15.25 -19.738281 15.25 -16.917969 C 15.25 -11.492188 14.4375 -7.5625 13.199219 -4.828125 C 12.304688 -2.949219 10.167969 -0.0859375 7.730469 -0.898438 C 5.339844 -1.707031 5.039062 -5.894531 5.039062 -7.945312 L 5.039062 -20.589844 L 1.066406 -20.589844 L 1.066406 -20.207031 C 1.324219 -20.207031 2.050781 -19.738281 2.050781 -16.917969 L 2.050781 -7.945312 C 2.050781 -4.101562 3.03125 0.171875 7.691406 0.171875 C 10.507812 0.171875 12.429688 -2.347656 13.542969 -4.699219 C 14.269531 -6.324219 14.867188 -8.457031 15.25 -11.023438 L 15.25 0 L 19.179688 0 Z M 19.179688 -0.382812 "/></g></g></g><g fill="rgb(0%, 0%, 0%)" fill-opacity="1"><g transform="translate(226.707962, 209.48773)"><g><path d="M 5 -20.546875 L 1.066406 -20.546875 L 1.066406 -20.164062 C 1.324219 -20.164062 2.050781 -19.695312 2.050781 -16.875 L 2.050781 10.339844 L 6.066406 8.800781 L 5.894531 8.414062 C 5.722656 8.414062 5.210938 8.117188 5 6.621094 L 5 -0.769531 C 6.921875 0 8.628906 0.300781 10.082031 0.300781 C 13.542969 0.300781 16.40625 -1.152344 18.496094 -3.332031 C 23.667969 -8.628906 24.480469 -19.265625 15.636719 -20.804688 C 13.925781 -21.105469 12.261719 -20.890625 10.765625 -19.992188 C 10.59375 -19.90625 10.421875 -19.820312 10.253906 -19.695312 C 9.097656 -18.96875 8.03125 -17.730469 7.175781 -16.105469 C 6.152344 -14.226562 5.382812 -11.875 5 -9.054688 Z M 5 -4.914062 L 5.039062 -4.914062 C 5.039062 -5.851562 5.082031 -6.835938 5.167969 -7.730469 L 5.425781 -9.570312 C 5.894531 -12.21875 6.792969 -14.996094 8.203125 -17.089844 C 8.972656 -18.199219 9.867188 -19.136719 10.9375 -19.738281 C 12.859375 -20.71875 14.695312 -20.164062 16.191406 -18.667969 C 19.351562 -15.507812 18.925781 -8.074219 16.789062 -4.273438 C 15.378906 -1.667969 13.113281 -0.128906 10.125 -0.0429688 C 8.542969 -0.0429688 6.835938 -0.382812 5 -1.109375 Z M 5 -4.914062 "/></g></g></g><g fill="rgb(0%, 0%, 0%)" fill-opacity="1"><g transform="translate(96.196075, 234.609769)"><g><path d="M 4.742188 0.167969 C 5.878906 0.167969 6.914062 -0.273438 7.675781 -1.003906 C 7.757812 -1.085938 7.789062 -1.160156 7.789062 -1.273438 L 7.789062 -3.195312 C 7.789062 -3.332031 7.714844 -3.414062 7.566406 -3.414062 L 4.847656 -3.414062 C 4.703125 -3.414062 4.628906 -3.332031 4.628906 -3.195312 L 4.628906 -2.828125 C 4.628906 -2.6875 4.703125 -2.605469 4.847656 -2.605469 L 6.992188 -2.605469 L 6.992188 -1.503906 C 6.386719 -0.980469 5.589844 -0.664062 4.742188 -0.664062 C 2.859375 -0.664062 1.292969 -2.097656 1.292969 -4.144531 C 1.292969 -6.199219 2.847656 -7.621094 4.742188 -7.621094 C 5.597656 -7.621094 6.398438 -7.292969 7 -6.757812 C 7.113281 -6.671875 7.210938 -6.671875 7.324219 -6.769531 L 7.613281 -7.027344 C 7.726562 -7.125 7.726562 -7.234375 7.613281 -7.335938 C 6.851562 -8.03125 5.84375 -8.453125 4.742188 -8.453125 C 2.394531 -8.453125 0.464844 -6.652344 0.464844 -4.144531 C 0.464844 -1.625 2.394531 0.167969 4.742188 0.167969 Z M 4.742188 0.167969 "/></g></g></g><g fill="rgb(0%, 0%, 0%)" fill-opacity="1"><g transform="translate(106.154709, 234.609769)"><g><path d="M 4.816406 0 C 4.960938 0 5.039062 -0.0742188 5.039062 -0.222656 L 5.039062 -0.589844 C 5.039062 -0.726562 4.960938 -0.808594 4.816406 -0.808594 L 1.644531 -0.808594 L 1.644531 -2.605469 L 4.386719 -2.605469 C 4.53125 -2.605469 4.605469 -2.6875 4.605469 -2.828125 L 4.605469 -3.195312 C 4.605469 -3.332031 4.53125 -3.414062 4.386719 -3.414062 L 1.644531 -3.414062 L 1.644531 -7.476562 L 4.816406 -7.476562 C 4.960938 -7.476562 5.039062 -7.558594 5.039062 -7.699219 L 5.039062 -8.066406 C 5.039062 -8.210938 4.960938 -8.285156 4.816406 -8.285156 L 1.042969 -8.285156 C 0.894531 -8.285156 0.820312 -8.210938 0.820312 -8.066406 L 0.820312 -0.222656 C 0.820312 -0.0742188 0.894531 0 1.042969 0 Z M 4.816406 0 "/></g></g></g><g fill="rgb(0%, 0%, 0%)" fill-opacity="1"><g transform="translate(113.245775, 234.609769)"><g><path d="M 2.859375 0 C 3.003906 0 3.082031 -0.0742188 3.082031 -0.222656 L 3.082031 -7.476562 L 5.007812 -7.476562 C 5.144531 -7.476562 5.226562 -7.558594 5.226562 -7.699219 L 5.226562 -8.066406 C 5.226562 -8.210938 5.144531 -8.285156 5.007812 -8.285156 L 0.328125 -8.285156 C 0.1875 -8.285156 0.109375 -8.210938 0.109375 -8.066406 L 0.109375 -7.699219 C 0.109375 -7.558594 0.1875 -7.476562 0.328125 -7.476562 L 2.253906 -7.476562 L 2.253906 -0.222656 C 2.253906 -0.0742188 2.332031 0 2.476562 0 Z M 2.859375 0 "/></g></g></g><g fill="rgb(0%, 0%, 0%)" fill-opacity="1"><g transform="translate(120.234428, 234.609769)"><g/></g></g><g fill="rgb(0%, 0%, 0%)" fill-opacity="1"><g transform="translate(124.980771, 234.609769)"><g><path d="M 3.359375 0 C 3.5 0 3.582031 -0.0742188 3.582031 -0.222656 L 3.582031 -4.089844 L 6.175781 -8.019531 C 6.273438 -8.160156 6.207031 -8.285156 6.03125 -8.285156 L 5.535156 -8.285156 C 5.425781 -8.285156 5.324219 -8.242188 5.257812 -8.140625 L 3.160156 -4.914062 L 1.0625 -8.140625 C 0.992188 -8.242188 0.90625 -8.285156 0.792969 -8.285156 L 0.296875 -8.285156 C 0.125 -8.285156 0.0546875 -8.160156 0.15625 -8.019531 L 2.75 -4.078125 L 2.75 -0.222656 C 2.75 -0.0742188 2.828125 0 2.972656 0 Z M 3.359375 0 "/></g></g></g><g fill="rgb(0%, 0%, 0%)" fill-opacity="1"><g transform="translate(132.966603, 234.609769)"><g><path d="M 4.742188 0.167969 C 7.082031 0.167969 9.015625 -1.625 9.015625 -4.144531 C 9.015625 -6.652344 7.082031 -8.453125 4.742188 -8.453125 C 2.394531 -8.453125 0.464844 -6.652344 0.464844 -4.144531 C 0.464844 -1.625 2.394531 0.167969 4.742188 0.167969 Z M 4.742188 -0.664062 C 2.859375 -0.664062 1.292969 -2.097656 1.292969 -4.144531 C 1.292969 -6.199219 2.847656 -7.621094 4.742188 -7.621094 C 6.617188 -7.621094 8.1875 -6.199219 8.1875 -4.144531 C 8.1875 -2.085938 6.617188 -0.664062 4.742188 -0.664062 Z M 4.742188 -0.664062 "/></g></g></g><g fill="rgb(0%, 0%, 0%)" fill-opacity="1"><g transform="translate(144.105683, 234.609769)"><g><path d="M 3.425781 0.167969 C 4.902344 0.167969 6.09375 -0.652344 6.09375 -2.605469 L 6.09375 -8.066406 C 6.09375 -8.210938 6.019531 -8.285156 5.878906 -8.285156 L 5.492188 -8.285156 C 5.347656 -8.285156 5.269531 -8.210938 5.269531 -8.066406 L 5.269531 -2.605469 C 5.269531 -1.117188 4.542969 -0.640625 3.425781 -0.640625 C 2.332031 -0.640625 1.589844 -1.117188 1.589844 -2.605469 L 1.589844 -8.066406 C 1.589844 -8.210938 1.515625 -8.285156 1.371094 -8.285156 L 0.980469 -8.285156 C 0.839844 -8.285156 0.761719 -8.210938 0.761719 -8.066406 L 0.761719 -2.605469 C 0.761719 -0.652344 1.96875 0.167969 3.425781 0.167969 Z M 3.425781 0.167969 "/></g></g></g><g fill="rgb(0%, 0%, 0%)" fill-opacity="1"><g transform="translate(152.619752, 234.609769)"><g><path d="M 4.804688 -2.855469 C 5.792969 -3.273438 6.273438 -4.125 6.273438 -5.414062 C 6.273438 -7.335938 5.207031 -8.285156 2.972656 -8.285156 L 1.042969 -8.285156 C 0.894531 -8.285156 0.820312 -8.210938 0.820312 -8.066406 L 0.820312 -0.222656 C 0.820312 -0.0742188 0.894531 0 1.042969 0 L 1.414062 0 C 1.558594 0 1.632812 -0.0742188 1.632812 -0.222656 L 1.632812 -2.539062 L 2.972656 -2.539062 C 3.34375 -2.539062 3.679688 -2.566406 3.988281 -2.621094 L 5.226562 -0.167969 C 5.28125 -0.0546875 5.355469 0 5.480469 0 L 5.945312 0 C 6.113281 0 6.1875 -0.109375 6.113281 -0.265625 Z M 1.632812 -7.476562 L 2.972656 -7.476562 C 3.710938 -7.476562 5.480469 -7.453125 5.480469 -5.414062 C 5.480469 -3.371094 3.710938 -3.351562 2.972656 -3.351562 L 1.632812 -3.351562 Z M 1.632812 -7.476562 "/></g></g></g><g fill="rgb(0%, 0%, 0%)" fill-opacity="1"><g transform="translate(161.079923, 234.609769)"><g/></g></g><g fill="rgb(0%, 0%, 0%)" fill-opacity="1"><g transform="translate(165.826268, 234.609769)"><g><path d="M 1.425781 0 C 1.570312 0 1.644531 -0.0742188 1.644531 -0.222656 L 1.644531 -2.605469 L 4.5 -2.605469 C 4.640625 -2.605469 4.714844 -2.6875 4.714844 -2.828125 L 4.714844 -3.195312 C 4.714844 -3.332031 4.640625 -3.414062 4.5 -3.414062 L 1.644531 -3.414062 L 1.644531 -7.476562 L 4.816406 -7.476562 C 4.960938 -7.476562 5.039062 -7.558594 5.039062 -7.699219 L 5.039062 -8.066406 C 5.039062 -8.210938 4.960938 -8.285156 4.816406 -8.285156 L 1.042969 -8.285156 C 0.894531 -8.285156 0.820312 -8.210938 0.820312 -8.066406 L 0.820312 -0.222656 C 0.820312 -0.0742188 0.894531 0 1.042969 0 Z M 1.425781 0 "/></g></g></g><g fill="rgb(0%, 0%, 0%)" fill-opacity="1"><g transform="translate(172.793362, 234.609769)"><g><path d="M 4.742188 0.167969 C 7.082031 0.167969 9.015625 -1.625 9.015625 -4.144531 C 9.015625 -6.652344 7.082031 -8.453125 4.742188 -8.453125 C 2.394531 -8.453125 0.464844 -6.652344 0.464844 -4.144531 C 0.464844 -1.625 2.394531 0.167969 4.742188 0.167969 Z M 4.742188 -0.664062 C 2.859375 -0.664062 1.292969 -2.097656 1.292969 -4.144531 C 1.292969 -6.199219 2.847656 -7.621094 4.742188 -7.621094 C 6.617188 -7.621094 8.1875 -6.199219 8.1875 -4.144531 C 8.1875 -2.085938 6.617188 -0.664062 4.742188 -0.664062 Z M 4.742188 -0.664062 "/></g></g></g><g fill="rgb(0%, 0%, 0%)" fill-opacity="1"><g transform="translate(183.932445, 234.609769)"><g><path d="M 4.742188 0.167969 C 7.082031 0.167969 9.015625 -1.625 9.015625 -4.144531 C 9.015625 -6.652344 7.082031 -8.453125 4.742188 -8.453125 C 2.394531 -8.453125 0.464844 -6.652344 0.464844 -4.144531 C 0.464844 -1.625 2.394531 0.167969 4.742188 0.167969 Z M 4.742188 -0.664062 C 2.859375 -0.664062 1.292969 -2.097656 1.292969 -4.144531 C 1.292969 -6.199219 2.847656 -7.621094 4.742188 -7.621094 C 6.617188 -7.621094 8.1875 -6.199219 8.1875 -4.144531 C 8.1875 -2.085938 6.617188 -0.664062 4.742188 -0.664062 Z M 4.742188 -0.664062 "/></g></g></g><g fill="rgb(0%, 0%, 0%)" fill-opacity="1"><g transform="translate(195.071522, 234.609769)"><g><path d="M 2.6875 0 C 5.238281 0 6.949219 -1.570312 6.949219 -4.164062 C 6.949219 -6.769531 5.238281 -8.285156 2.6875 -8.285156 L 1.042969 -8.285156 C 0.894531 -8.285156 0.820312 -8.210938 0.820312 -8.066406 L 0.820312 -0.222656 C 0.820312 -0.0742188 0.894531 0 1.042969 0 Z M 1.644531 -7.476562 L 2.664062 -7.476562 C 4.773438 -7.476562 6.121094 -6.316406 6.121094 -4.164062 C 6.121094 -2.011719 4.773438 -0.808594 2.664062 -0.808594 L 1.644531 -0.808594 Z M 1.644531 -7.476562 "/></g></g></g><g fill="rgb(0%, 0%, 0%)" fill-opacity="1"><g transform="translate(204.156952, 234.609769)"><g/></g></g><g fill="rgb(0%, 0%, 0%)" fill-opacity="1"><g transform="translate(208.903297, 234.609769)"><g><path d="M 2.6875 0 C 5.238281 0 6.949219 -1.570312 6.949219 -4.164062 C 6.949219 -6.769531 5.238281 -8.285156 2.6875 -8.285156 L 1.042969 -8.285156 C 0.894531 -8.285156 0.820312 -8.210938 0.820312 -8.066406 L 0.820312 -0.222656 C 0.820312 -0.0742188 0.894531 0 1.042969 0 Z M 1.644531 -7.476562 L 2.664062 -7.476562 C 4.773438 -7.476562 6.121094 -6.316406 6.121094 -4.164062 C 6.121094 -2.011719 4.773438 -0.808594 2.664062 -0.808594 L 1.644531 -0.808594 Z M 1.644531 -7.476562 "/></g></g></g><g fill="rgb(0%, 0%, 0%)" fill-opacity="1"><g transform="translate(217.988727, 234.609769)"><g><path d="M 4.816406 0 C 4.960938 0 5.039062 -0.0742188 5.039062 -0.222656 L 5.039062 -0.589844 C 5.039062 -0.726562 4.960938 -0.808594 4.816406 -0.808594 L 1.644531 -0.808594 L 1.644531 -2.605469 L 4.386719 -2.605469 C 4.53125 -2.605469 4.605469 -2.6875 4.605469 -2.828125 L 4.605469 -3.195312 C 4.605469 -3.332031 4.53125 -3.414062 4.386719 -3.414062 L 1.644531 -3.414062 L 1.644531 -7.476562 L 4.816406 -7.476562 C 4.960938 -7.476562 5.039062 -7.558594 5.039062 -7.699219 L 5.039062 -8.066406 C 5.039062 -8.210938 4.960938 -8.285156 4.816406 -8.285156 L 1.042969 -8.285156 C 0.894531 -8.285156 0.820312 -8.210938 0.820312 -8.066406 L 0.820312 -0.222656 C 0.820312 -0.0742188 0.894531 0 1.042969 0 Z M 4.816406 0 "/></g></g></g><g fill="rgb(0%, 0%, 0%)" fill-opacity="1"><g transform="translate(225.079795, 234.609769)"><g><path d="M 4.089844 0 C 4.230469 0 4.308594 -0.0742188 4.308594 -0.222656 L 4.308594 -0.589844 C 4.308594 -0.726562 4.230469 -0.808594 4.089844 -0.808594 L 1.644531 -0.808594 L 1.644531 -8.066406 C 1.644531 -8.210938 1.570312 -8.285156 1.425781 -8.285156 L 1.042969 -8.285156 C 0.894531 -8.285156 0.820312 -8.210938 0.820312 -8.066406 L 0.820312 -0.222656 C 0.820312 -0.0742188 0.894531 0 1.042969 0 Z M 4.089844 0 "/></g></g></g><g fill="rgb(0%, 0%, 0%)" fill-opacity="1"><g transform="translate(231.162901, 234.609769)"><g><path d="M 1.425781 0 C 1.570312 0 1.644531 -0.0742188 1.644531 -0.222656 L 1.644531 -8.066406 C 1.644531 -8.210938 1.570312 -8.285156 1.425781 -8.285156 L 1.042969 -8.285156 C 0.894531 -8.285156 0.820312 -8.210938 0.820312 -8.066406 L 0.820312 -0.222656 C 0.820312 -0.0742188 0.894531 0 1.042969 0 Z M 1.425781 0 "/></g></g></g><g fill="rgb(0%, 0%, 0%)" fill-opacity="1"><g transform="translate(235.283987, 234.609769)"><g><path d="M 6.660156 -8.285156 C 6.539062 -8.285156 6.453125 -8.242188 6.410156 -8.117188 L 3.726562 -1.601562 L 1.042969 -8.117188 C 0.992188 -8.242188 0.90625 -8.285156 0.78125 -8.285156 L 0.355469 -8.285156 C 0.1875 -8.285156 0.125 -8.1875 0.1875 -8.03125 L 3.535156 0 C 3.625 0.222656 3.824219 0.222656 3.910156 0 L 7.261719 -8.03125 C 7.324219 -8.1875 7.261719 -8.285156 7.09375 -8.285156 Z M 6.660156 -8.285156 "/></g></g></g><g fill="rgb(0%, 0%, 0%)" fill-opacity="1"><g transform="translate(244.380197, 234.609769)"><g><path d="M 4.816406 0 C 4.960938 0 5.039062 -0.0742188 5.039062 -0.222656 L 5.039062 -0.589844 C 5.039062 -0.726562 4.960938 -0.808594 4.816406 -0.808594 L 1.644531 -0.808594 L 1.644531 -2.605469 L 4.386719 -2.605469 C 4.53125 -2.605469 4.605469 -2.6875 4.605469 -2.828125 L 4.605469 -3.195312 C 4.605469 -3.332031 4.53125 -3.414062 4.386719 -3.414062 L 1.644531 -3.414062 L 1.644531 -7.476562 L 4.816406 -7.476562 C 4.960938 -7.476562 5.039062 -7.558594 5.039062 -7.699219 L 5.039062 -8.066406 C 5.039062 -8.210938 4.960938 -8.285156 4.816406 -8.285156 L 1.042969 -8.285156 C 0.894531 -8.285156 0.820312 -8.210938 0.820312 -8.066406 L 0.820312 -0.222656 C 0.820312 -0.0742188 0.894531 0 1.042969 0 Z M 4.816406 0 "/></g></g></g><g fill="rgb(0%, 0%, 0%)" fill-opacity="1"><g transform="translate(251.471265, 234.609769)"><g><path d="M 4.804688 -2.855469 C 5.792969 -3.273438 6.273438 -4.125 6.273438 -5.414062 C 6.273438 -7.335938 5.207031 -8.285156 2.972656 -8.285156 L 1.042969 -8.285156 C 0.894531 -8.285156 0.820312 -8.210938 0.820312 -8.066406 L 0.820312 -0.222656 C 0.820312 -0.0742188 0.894531 0 1.042969 0 L 1.414062 0 C 1.558594 0 1.632812 -0.0742188 1.632812 -0.222656 L 1.632812 -2.539062 L 2.972656 -2.539062 C 3.34375 -2.539062 3.679688 -2.566406 3.988281 -2.621094 L 5.226562 -0.167969 C 5.28125 -0.0546875 5.355469 0 5.480469 0 L 5.945312 0 C 6.113281 0 6.1875 -0.109375 6.113281 -0.265625 Z M 1.632812 -7.476562 L 2.972656 -7.476562 C 3.710938 -7.476562 5.480469 -7.453125 5.480469 -5.414062 C 5.480469 -3.371094 3.710938 -3.351562 2.972656 -3.351562 L 1.632812 -3.351562 Z M 1.632812 -7.476562 "/></g></g></g><g fill="rgb(0%, 0%, 0%)" fill-opacity="1"><g transform="translate(259.931435, 234.609769)"><g><path d="M 4.816406 0 C 4.960938 0 5.039062 -0.0742188 5.039062 -0.222656 L 5.039062 -0.589844 C 5.039062 -0.726562 4.960938 -0.808594 4.816406 -0.808594 L 1.644531 -0.808594 L 1.644531 -2.605469 L 4.386719 -2.605469 C 4.53125 -2.605469 4.605469 -2.6875 4.605469 -2.828125 L 4.605469 -3.195312 C 4.605469 -3.332031 4.53125 -3.414062 4.386719 -3.414062 L 1.644531 -3.414062 L 1.644531 -7.476562 L 4.816406 -7.476562 C 4.960938 -7.476562 5.039062 -7.558594 5.039062 -7.699219 L 5.039062 -8.066406 C 5.039062 -8.210938 4.960938 -8.285156 4.816406 -8.285156 L 1.042969 -8.285156 C 0.894531 -8.285156 0.820312 -8.210938 0.820312 -8.066406 L 0.820312 -0.222656 C 0.820312 -0.0742188 0.894531 0 1.042969 0 Z M 4.816406 0 "/></g></g></g><g fill="rgb(0%, 0%, 0%)" fill-opacity="1"><g transform="translate(267.022503, 234.609769)"><g><path d="M 2.6875 0 C 5.238281 0 6.949219 -1.570312 6.949219 -4.164062 C 6.949219 -6.769531 5.238281 -8.285156 2.6875 -8.285156 L 1.042969 -8.285156 C 0.894531 -8.285156 0.820312 -8.210938 0.820312 -8.066406 L 0.820312 -0.222656 C 0.820312 -0.0742188 0.894531 0 1.042969 0 Z M 1.644531 -7.476562 L 2.664062 -7.476562 C 4.773438 -7.476562 6.121094 -6.316406 6.121094 -4.164062 C 6.121094 -2.011719 4.773438 -0.808594 2.664062 -0.808594 L 1.644531 -0.808594 Z M 1.644531 -7.476562 "/></g></g></g><g fill="rgb(0%, 0%, 0%)" fill-opacity="1"><g transform="translate(276.107932, 234.609769)"><g><path d="M 1.539062 -2.175781 C 1.675781 -2.175781 1.757812 -2.253906 1.757812 -2.394531 L 1.757812 -8.066406 C 1.757812 -8.210938 1.675781 -8.285156 1.539062 -8.285156 L 1.148438 -8.285156 C 1.003906 -8.285156 0.929688 -8.210938 0.929688 -8.066406 L 0.929688 -2.394531 C 0.929688 -2.253906 1.003906 -2.175781 1.148438 -2.175781 Z M 1.335938 0.109375 C 1.6875 0.109375 2 -0.179688 2 -0.539062 C 2 -0.90625 1.6875 -1.203125 1.335938 -1.203125 C 0.972656 -1.203125 0.683594 -0.90625 0.683594 -0.539062 C 0.683594 -0.179688 0.972656 0.109375 1.335938 0.109375 Z M 1.335938 0.109375 "/></g></g></g><g clip-path="url(#id1)"><path fill="rgb(0%, 0%, 0%)" d="M 193.722656 171.699219 C 200.875 170.621094 207.46875 167.621094 212.640625 162.4375 C 218.171875 156.890625 221.210938 149.714844 222.078125 141.964844 L 222.621094 137.125 L 217.792969 137.667969 C 210.167969 138.523438 203.105469 141.496094 197.605469 146.894531 L 197.667969 149.097656 C 218.078125 135.558594 217.242188 160.359375 193.722656 171.699219 Z M 193.722656 171.699219 " fill-opacity="1" fill-rule="evenodd"/></g><g clip-path="url(#id2)"><path fill="rgb(0%, 0%, 0%)" d="M 181.0625 171.699219 C 173.90625 170.621094 167.316406 167.621094 162.144531 162.4375 C 156.609375 156.890625 153.570312 149.714844 152.703125 141.964844 L 152.164062 137.125 L 156.992188 137.667969 C 164.617188 138.523438 171.679688 141.496094 177.179688 146.894531 L 177.117188 149.097656 C 156.703125 135.558594 157.542969 160.359375 181.0625 171.699219 Z M 181.0625 171.699219 " fill-opacity="1" fill-rule="evenodd"/></g><path fill="rgb(0%, 0%, 0%)" d="M 198.941406 148.457031 C 198.941406 153.644531 197.160156 158.835938 193.59375 163.578125 C 195.003906 160.667969 195.710938 157.613281 195.710938 154.558594 C 195.710938 148.5 192.9375 142.445312 187.390625 137.511719 C 181.847656 142.445312 179.074219 148.5 179.074219 154.558594 C 179.074219 157.613281 179.78125 160.667969 181.191406 163.578125 C 177.625 158.835938 175.84375 153.644531 175.84375 148.457031 C 175.84375 140.832031 179.691406 133.207031 187.390625 126.992188 C 195.089844 133.207031 198.941406 140.832031 198.941406 148.457031 Z M 198.941406 148.457031 " fill-opacity="1" fill-rule="evenodd"/><g clip-path="url(#id3)"><path fill="rgb(0%, 0%, 0%)" d="M 195.054688 111.113281 C 195.019531 111.117188 194.988281 111.125 194.957031 111.132812 C 194.988281 111.136719 195.019531 111.144531 195.054688 111.152344 L 194.863281 111.152344 C 189.953125 112.199219 188.132812 116.625 187.390625 119.5625 C 186.652344 116.625 184.832031 112.199219 179.917969 111.152344 L 179.730469 111.152344 C 179.761719 111.144531 179.792969 111.136719 179.824219 111.132812 C 179.792969 111.125 179.761719 111.117188 179.730469 111.113281 L 179.917969 111.113281 C 184.832031 110.066406 186.652344 105.636719 187.390625 102.699219 C 188.132812 105.636719 189.953125 110.066406 194.863281 111.113281 Z M 195.054688 111.113281 " fill-opacity="1" fill-rule="evenodd"/></g><path fill="rgb(0%, 0%, 0%)" d="M 205.730469 123.960938 C 205.75 123.964844 205.773438 123.972656 205.792969 123.976562 C 205.773438 123.980469 205.75 123.984375 205.730469 123.988281 L 205.855469 123.988281 C 209.101562 124.679688 210.304688 127.605469 210.792969 129.546875 C 211.28125 127.605469 212.484375 124.679688 215.730469 123.988281 L 215.855469 123.988281 C 215.832031 123.984375 215.8125 123.980469 215.792969 123.976562 C 215.8125 123.972656 215.832031 123.964844 215.855469 123.960938 L 215.730469 123.960938 C 212.484375 123.269531 211.28125 120.34375 210.792969 118.402344 C 210.304688 120.34375 209.101562 123.269531 205.855469 123.960938 Z M 205.730469 123.960938 " fill-opacity="1" fill-rule="evenodd"/><g clip-path="url(#id4)"><path fill="rgb(0%, 0%, 0%)" d="M 179.730469 111.113281 C 179.761719 111.117188 179.792969 111.125 179.824219 111.132812 C 179.792969 111.136719 179.761719 111.144531 179.730469 111.152344 L 179.917969 111.152344 C 184.832031 112.199219 186.652344 116.625 187.390625 119.5625 C 188.132812 116.625 189.953125 112.199219 194.863281 111.152344 L 195.054688 111.152344 C 195.019531 111.144531 194.992188 111.136719 194.957031 111.132812 C 194.992188 111.125 195.019531 111.117188 195.054688 111.113281 L 194.863281 111.113281 C 189.953125 110.066406 188.132812 105.636719 187.390625 102.699219 C 186.652344 105.636719 184.832031 110.066406 179.917969 111.113281 Z M 179.730469 111.113281 " fill-opacity="1" fill-rule="evenodd"/></g><path fill="rgb(0%, 0%, 0%)" d="M 169.054688 123.960938 C 169.035156 123.964844 169.011719 123.972656 168.992188 123.976562 C 169.011719 123.980469 169.035156 123.984375 169.054688 123.988281 L 168.929688 123.988281 C 165.683594 124.679688 164.480469 127.605469 163.992188 129.546875 C 163.503906 127.605469 162.300781 124.679688 159.054688 123.988281 L 158.929688 123.988281 C 158.949219 123.984375 158.972656 123.980469 158.992188 123.976562 C 158.972656 123.972656 158.949219 123.964844 158.929688 123.960938 L 159.054688 123.960938 C 162.300781 123.269531 163.503906 120.34375 163.992188 118.402344 C 164.480469 120.34375 165.683594 123.269531 168.929688 123.960938 Z M 169.054688 123.960938 " fill-opacity="1" fill-rule="evenodd"/></svg>